solid Default
  facet normal 1.947636e-05 1.000000e+00 1.699503e-04
    outer loop
      vertex -2.000000e+01 1.888296e+01 2.284675e+01
      vertex -4.375341e+00 1.888909e+01 2.230000e+01
      vertex -2.000000e+01 1.888909e+01 2.819966e-15
    endloop
  endfacet
  facet normal 1.947636e-05 1.000000e+00 1.699503e-04
    outer loop
      vertex -4.375341e+00 1.888909e+01 2.230000e+01
      vertex -2.000000e+01 1.888296e+01 2.284675e+01
      vertex 2.000000e+01 1.888296e+01 2.284675e+01
    endloop
  endfacet
  facet normal -7.071068e-01 0.000000e+00 7.071068e-01
    outer loop
      vertex -2.100000e+01 -1.111091e+01 1.100000e+01
      vertex -3.100000e+01 -1.211091e+01 1.000000e+00
      vertex -2.100000e+01 -1.211091e+01 1.100000e+01
    endloop
  endfacet
  facet normal -7.071068e-01 0.000000e+00 7.071068e-01
    outer loop
      vertex -3.100000e+01 -1.211091e+01 1.000000e+00
      vertex -2.100000e+01 -1.111091e+01 1.100000e+01
      vertex -3.100000e+01 -1.111091e+01 1.000000e+00
    endloop
  endfacet
  facet normal 0.000000e+00 1.000000e+00 0.000000e+00
    outer loop
      vertex -2.100000e+01 -1.111091e+01 1.100000e+01
      vertex -2.100000e+01 -1.111091e+01 1.000000e+00
      vertex -3.100000e+01 -1.111091e+01 1.000000e+00
    endloop
  endfacet
  facet normal -7.071068e-01 0.000000e+00 7.071068e-01
    outer loop
      vertex -2.100000e+01 1.988909e+01 1.100000e+01
      vertex -3.100000e+01 1.888909e+01 1.000000e+00
      vertex -2.100000e+01 1.888909e+01 1.100000e+01
    endloop
  endfacet
  facet normal -7.071068e-01 0.000000e+00 7.071068e-01
    outer loop
      vertex -3.100000e+01 1.888909e+01 1.000000e+00
      vertex -2.100000e+01 1.988909e+01 1.100000e+01
      vertex -3.100000e+01 1.988909e+01 1.000000e+00
    endloop
  endfacet
  facet normal 0.000000e+00 -1.000000e+00 0.000000e+00
    outer loop
      vertex -2.100000e+01 1.888909e+01 1.100000e+01
      vertex -3.100000e+01 1.888909e+01 1.000000e+00
      vertex -2.100000e+01 1.888909e+01 1.000000e+00
    endloop
  endfacet
  facet normal 0.000000e+00 1.000000e+00 0.000000e+00
    outer loop
      vertex -3.100000e+01 1.988909e+01 1.000000e+00
      vertex 3.100000e+01 1.988909e+01 0.000000e+00
      vertex -3.100000e+01 1.988909e+01 0.000000e+00
    endloop
  endfacet
  facet normal 1.000000e+00 -1.269981e-17 -1.198493e-18
    outer loop
      vertex -2.000000e+01 -1.211091e+01 1.141421e+01
      vertex -2.000000e+01 3.445436e+00 3.828427e+01
      vertex -2.000000e+01 -1.776777e+01 1.707107e+01
    endloop
  endfacet
  facet normal 1.000000e+00 -1.269981e-17 -1.198493e-18
    outer loop
      vertex -2.000000e+01 3.445436e+00 3.828427e+01
      vertex -2.000000e+01 -1.211091e+01 1.141421e+01
      vertex -2.000000e+01 -1.140381e+01 1.070711e+01
    endloop
  endfacet
  facet normal 1.000000e+00 -1.269981e-17 -1.198493e-18
    outer loop
      vertex -2.000000e+01 3.445436e+00 3.828427e+01
      vertex -2.000000e+01 -1.140381e+01 1.070711e+01
      vertex -2.000000e+01 -1.111091e+01 2.819966e-15
    endloop
  endfacet
  facet normal 1.000000e+00 -1.269981e-17 -1.198493e-18
    outer loop
      vertex -2.000000e+01 3.445436e+00 3.828427e+01
      vertex -2.000000e+01 -1.111091e+01 2.819966e-15
      vertex -2.000000e+01 1.888909e+01 2.819966e-15
    endloop
  endfacet
  facet normal 1.000000e+00 -1.269981e-17 -1.198493e-18
    outer loop
      vertex -2.000000e+01 3.445436e+00 3.828427e+01
      vertex -2.000000e+01 1.888909e+01 2.819966e-15
      vertex -2.000000e+01 9.102291e+00 3.262742e+01
    endloop
  endfacet
  facet normal 1.000000e+00 -1.269981e-17 -1.198493e-18
    outer loop
      vertex -2.000000e+01 9.102291e+00 3.262742e+01
      vertex -2.000000e+01 1.888909e+01 2.819966e-15
      vertex -2.000000e+01 1.888296e+01 2.284675e+01
    endloop
  endfacet
  facet normal -5.083048e-17 1.000000e+00 -2.856585e-15
    outer loop
      vertex -3.100000e+01 1.988909e+01 1.000000e+00
      vertex 3.100000e+01 1.988909e+01 1.000000e+00
      vertex 3.100000e+01 1.988909e+01 0.000000e+00
    endloop
  endfacet
  facet normal -5.083048e-17 1.000000e+00 -2.856585e-15
    outer loop
      vertex 3.100000e+01 1.988909e+01 1.000000e+00
      vertex -3.100000e+01 1.988909e+01 1.000000e+00
      vertex -2.100000e+01 1.988909e+01 1.100000e+01
    endloop
  endfacet
  facet normal -5.083048e-17 1.000000e+00 -2.856585e-15
    outer loop
      vertex 3.100000e+01 1.988909e+01 1.000000e+00
      vertex -2.100000e+01 1.988909e+01 1.100000e+01
      vertex 2.100000e+01 1.988909e+01 1.100000e+01
    endloop
  endfacet
  facet normal -5.083048e-17 1.000000e+00 -2.856585e-15
    outer loop
      vertex 2.100000e+01 1.988909e+01 1.100000e+01
      vertex -2.100000e+01 1.988909e+01 1.100000e+01
      vertex -2.100000e+01 1.988909e+01 2.330000e+01
    endloop
  endfacet
  facet normal -5.083048e-17 1.000000e+00 -2.856585e-15
    outer loop
      vertex 2.100000e+01 1.988909e+01 1.100000e+01
      vertex -2.100000e+01 1.988909e+01 2.330000e+01
      vertex 2.100000e+01 1.988909e+01 2.330000e+01
    endloop
  endfacet
  facet normal -1.000000e+00 0.000000e+00 0.000000e+00
    outer loop
      vertex -2.100000e+01 1.988909e+01 2.330000e+01
      vertex -2.100000e+01 1.888909e+01 1.100000e+01
      vertex -2.100000e+01 2.738329e+00 4.040559e+01
    endloop
  endfacet
  facet normal -1.000000e+00 0.000000e+00 0.000000e+00
    outer loop
      vertex -2.100000e+01 1.888909e+01 1.100000e+01
      vertex -2.100000e+01 1.988909e+01 2.330000e+01
      vertex -2.100000e+01 1.988909e+01 1.100000e+01
    endloop
  endfacet
  facet normal -1.000000e+00 0.000000e+00 0.000000e+00
    outer loop
      vertex -2.100000e+01 2.738329e+00 4.040559e+01
      vertex -2.100000e+01 -1.211091e+01 1.100000e+01
      vertex -2.100000e+01 -1.988909e+01 1.777818e+01
    endloop
  endfacet
  facet normal -1.000000e+00 0.000000e+00 0.000000e+00
    outer loop
      vertex -2.100000e+01 -1.211091e+01 1.100000e+01
      vertex -2.100000e+01 2.738329e+00 4.040559e+01
      vertex -2.100000e+01 -1.111091e+01 1.100000e+01
    endloop
  endfacet
  facet normal -1.000000e+00 0.000000e+00 0.000000e+00
    outer loop
      vertex -2.100000e+01 -1.111091e+01 1.100000e+01
      vertex -2.100000e+01 2.738329e+00 4.040559e+01
      vertex -2.100000e+01 -1.111091e+01 1.000000e+00
    endloop
  endfacet
  facet normal -1.000000e+00 0.000000e+00 0.000000e+00
    outer loop
      vertex -2.100000e+01 -1.111091e+01 1.000000e+00
      vertex -2.100000e+01 2.738329e+00 4.040559e+01
      vertex -2.100000e+01 1.888909e+01 1.000000e+00
    endloop
  endfacet
  facet normal -1.000000e+00 0.000000e+00 0.000000e+00
    outer loop
      vertex -2.100000e+01 1.888909e+01 1.000000e+00
      vertex -2.100000e+01 2.738329e+00 4.040559e+01
      vertex -2.100000e+01 1.888909e+01 1.100000e+01
    endloop
  endfacet
  facet normal -1.000000e+00 0.000000e+00 0.000000e+00
    outer loop
      vertex -2.100000e+01 -1.211091e+01 1.000000e+01
      vertex -2.100000e+01 -1.988909e+01 1.777818e+01
      vertex -2.100000e+01 -1.211091e+01 1.100000e+01
    endloop
  endfacet
  facet normal -7.378018e-19 9.996260e-01 2.734480e-02
    outer loop
      vertex -2.000000e+01 -1.140381e+01 1.070711e+01
      vertex 2.000000e+01 -1.111091e+01 2.819966e-15
      vertex -2.000000e+01 -1.111091e+01 2.819966e-15
    endloop
  endfacet
  facet normal -1.437494e-17 7.061739e-01 7.080384e-01
    outer loop
      vertex 2.100000e+01 2.738329e+00 4.040559e+01
      vertex -2.100000e+01 1.988909e+01 2.330000e+01
      vertex -2.100000e+01 2.738329e+00 4.040559e+01
    endloop
  endfacet
  facet normal -1.437494e-17 7.061739e-01 7.080384e-01
    outer loop
      vertex -2.100000e+01 1.988909e+01 2.330000e+01
      vertex 2.100000e+01 2.738329e+00 4.040559e+01
      vertex 2.100000e+01 1.988909e+01 2.330000e+01
    endloop
  endfacet
  facet normal -1.000000e+00 0.000000e+00 0.000000e+00
    outer loop
      vertex -3.100000e+01 -1.111091e+01 1.000000e+00
      vertex -3.100000e+01 -1.211091e+01 0.000000e+00
      vertex -3.100000e+01 -1.211091e+01 1.000000e+00
    endloop
  endfacet
  facet normal -1.000000e+00 0.000000e+00 0.000000e+00
    outer loop
      vertex -3.100000e+01 -1.211091e+01 0.000000e+00
      vertex -3.100000e+01 -1.111091e+01 1.000000e+00
      vertex -3.100000e+01 1.988909e+01 0.000000e+00
    endloop
  endfacet
  facet normal -1.000000e+00 0.000000e+00 0.000000e+00
    outer loop
      vertex -3.100000e+01 1.988909e+01 0.000000e+00
      vertex -3.100000e+01 -1.111091e+01 1.000000e+00
      vertex -3.100000e+01 1.888909e+01 1.000000e+00
    endloop
  endfacet
  facet normal -1.000000e+00 0.000000e+00 0.000000e+00
    outer loop
      vertex -3.100000e+01 1.988909e+01 0.000000e+00
      vertex -3.100000e+01 1.888909e+01 1.000000e+00
      vertex -3.100000e+01 1.988909e+01 1.000000e+00
    endloop
  endfacet
  facet normal 1.000000e+00 4.438482e-16 -1.127987e-14
    outer loop
      vertex 3.100000e+01 -1.211091e+01 0.000000e+00
      vertex 3.100000e+01 -1.111091e+01 1.000000e+00
      vertex 3.100000e+01 -1.211091e+01 1.000000e+00
    endloop
  endfacet
  facet normal 1.000000e+00 4.438482e-16 -1.127987e-14
    outer loop
      vertex 3.100000e+01 -1.111091e+01 1.000000e+00
      vertex 3.100000e+01 -1.211091e+01 0.000000e+00
      vertex 3.100000e+01 1.988909e+01 0.000000e+00
    endloop
  endfacet
  facet normal 1.000000e+00 4.438482e-16 -1.127987e-14
    outer loop
      vertex 3.100000e+01 -1.111091e+01 1.000000e+00
      vertex 3.100000e+01 1.988909e+01 0.000000e+00
      vertex 3.100000e+01 1.888909e+01 1.000000e+00
    endloop
  endfacet
  facet normal 1.000000e+00 4.438482e-16 -1.127987e-14
    outer loop
      vertex 3.100000e+01 1.888909e+01 1.000000e+00
      vertex 3.100000e+01 1.988909e+01 0.000000e+00
      vertex 3.100000e+01 1.988909e+01 1.000000e+00
    endloop
  endfacet
  facet normal 0.000000e+00 0.000000e+00 1.000000e+00
    outer loop
      vertex -2.100000e+01 -1.111091e+01 1.000000e+00
      vertex -3.100000e+01 1.888909e+01 1.000000e+00
      vertex -3.100000e+01 -1.111091e+01 1.000000e+00
    endloop
  endfacet
  facet normal 0.000000e+00 0.000000e+00 1.000000e+00
    outer loop
      vertex -3.100000e+01 1.888909e+01 1.000000e+00
      vertex -2.100000e+01 -1.111091e+01 1.000000e+00
      vertex -2.100000e+01 1.888909e+01 1.000000e+00
    endloop
  endfacet
  facet normal 0.000000e+00 0.000000e+00 -1.000000e+00
    outer loop
      vertex -3.100000e+01 1.988909e+01 0.000000e+00
      vertex -2.000000e+01 1.888909e+01 2.819966e-15
      vertex -3.100000e+01 -1.211091e+01 0.000000e+00
    endloop
  endfacet
  facet normal 0.000000e+00 0.000000e+00 -1.000000e+00
    outer loop
      vertex -2.000000e+01 1.888909e+01 2.819966e-15
      vertex -3.100000e+01 1.988909e+01 0.000000e+00
      vertex 3.100000e+01 1.988909e+01 0.000000e+00
    endloop
  endfacet
  facet normal 0.000000e+00 0.000000e+00 -1.000000e+00
    outer loop
      vertex -2.000000e+01 1.888909e+01 2.819966e-15
      vertex 3.100000e+01 1.988909e+01 0.000000e+00
      vertex 2.000000e+01 1.888909e+01 2.819966e-15
    endloop
  endfacet
  facet normal 0.000000e+00 0.000000e+00 -1.000000e+00
    outer loop
      vertex 2.000000e+01 1.888909e+01 2.819966e-15
      vertex 3.100000e+01 1.988909e+01 0.000000e+00
      vertex 2.000000e+01 -1.111091e+01 2.819966e-15
    endloop
  endfacet
  facet normal 0.000000e+00 0.000000e+00 -1.000000e+00
    outer loop
      vertex -3.100000e+01 -1.211091e+01 0.000000e+00
      vertex -2.000000e+01 -1.111091e+01 2.819966e-15
      vertex 3.100000e+01 -1.211091e+01 0.000000e+00
    endloop
  endfacet
  facet normal 0.000000e+00 0.000000e+00 -1.000000e+00
    outer loop
      vertex -2.000000e+01 -1.111091e+01 2.819966e-15
      vertex -3.100000e+01 -1.211091e+01 0.000000e+00
      vertex -2.000000e+01 1.888909e+01 2.819966e-15
    endloop
  endfacet
  facet normal 0.000000e+00 0.000000e+00 -1.000000e+00
    outer loop
      vertex 3.100000e+01 -1.211091e+01 0.000000e+00
      vertex -2.000000e+01 -1.111091e+01 2.819966e-15
      vertex 2.000000e+01 -1.111091e+01 2.819966e-15
    endloop
  endfacet
  facet normal 0.000000e+00 0.000000e+00 -1.000000e+00
    outer loop
      vertex 3.100000e+01 -1.211091e+01 0.000000e+00
      vertex 2.000000e+01 -1.111091e+01 2.819966e-15
      vertex 3.100000e+01 1.988909e+01 0.000000e+00
    endloop
  endfacet
  facet normal 0.000000e+00 -1.000000e+00 -1.762479e-15
    outer loop
      vertex 3.100000e+01 -1.211091e+01 1.000000e+00
      vertex -3.100000e+01 -1.211091e+01 0.000000e+00
      vertex 3.100000e+01 -1.211091e+01 0.000000e+00
    endloop
  endfacet
  facet normal 7.071068e-01 -2.769815e-14 7.071068e-01
    outer loop
      vertex 3.100000e+01 1.988909e+01 1.000000e+00
      vertex 2.100000e+01 1.888909e+01 1.100000e+01
      vertex 3.100000e+01 1.888909e+01 1.000000e+00
    endloop
  endfacet
  facet normal 7.071068e-01 -2.769815e-14 7.071068e-01
    outer loop
      vertex 2.100000e+01 1.888909e+01 1.100000e+01
      vertex 3.100000e+01 1.988909e+01 1.000000e+00
      vertex 2.100000e+01 1.988909e+01 1.100000e+01
    endloop
  endfacet
  facet normal 1.000000e+00 5.829916e-16 1.309504e-16
    outer loop
      vertex 2.100000e+01 1.888909e+01 1.000000e+00
      vertex 2.100000e+01 -1.111091e+01 1.100000e+01
      vertex 2.100000e+01 -1.111091e+01 1.000000e+00
    endloop
  endfacet
  facet normal 1.000000e+00 5.829916e-16 1.309504e-16
    outer loop
      vertex 2.100000e+01 -1.111091e+01 1.100000e+01
      vertex 2.100000e+01 1.888909e+01 1.000000e+00
      vertex 2.100000e+01 2.738329e+00 4.040559e+01
    endloop
  endfacet
  facet normal 1.000000e+00 5.829916e-16 1.309504e-16
    outer loop
      vertex 2.100000e+01 2.738329e+00 4.040559e+01
      vertex 2.100000e+01 1.888909e+01 1.000000e+00
      vertex 2.100000e+01 1.888909e+01 1.100000e+01
    endloop
  endfacet
  facet normal 1.000000e+00 5.829916e-16 1.309504e-16
    outer loop
      vertex 2.100000e+01 2.738329e+00 4.040559e+01
      vertex 2.100000e+01 1.888909e+01 1.100000e+01
      vertex 2.100000e+01 1.988909e+01 2.330000e+01
    endloop
  endfacet
  facet normal 1.000000e+00 5.829916e-16 1.309504e-16
    outer loop
      vertex 2.100000e+01 1.988909e+01 2.330000e+01
      vertex 2.100000e+01 1.888909e+01 1.100000e+01
      vertex 2.100000e+01 1.988909e+01 1.100000e+01
    endloop
  endfacet
  facet normal 1.000000e+00 5.829916e-16 1.309504e-16
    outer loop
      vertex 2.100000e+01 -1.988909e+01 1.777818e+01
      vertex 2.100000e+01 -1.211091e+01 1.100000e+01
      vertex 2.100000e+01 2.738329e+00 4.040559e+01
    endloop
  endfacet
  facet normal 1.000000e+00 5.829916e-16 1.309504e-16
    outer loop
      vertex 2.100000e+01 -1.211091e+01 1.100000e+01
      vertex 2.100000e+01 -1.988909e+01 1.777818e+01
      vertex 2.100000e+01 -1.211091e+01 1.000000e+01
    endloop
  endfacet
  facet normal 1.000000e+00 5.829916e-16 1.309504e-16
    outer loop
      vertex 2.100000e+01 2.738329e+00 4.040559e+01
      vertex 2.100000e+01 -1.211091e+01 1.100000e+01
      vertex 2.100000e+01 -1.111091e+01 1.100000e+01
    endloop
  endfacet
  facet normal 1.826859e-15 -1.000000e+00 9.080491e-15
    outer loop
      vertex 3.100000e+01 -1.211091e+01 1.000000e+00
      vertex -3.100000e+01 -1.211091e+01 1.000000e+00
      vertex -3.100000e+01 -1.211091e+01 0.000000e+00
    endloop
  endfacet
  facet normal 1.826859e-15 -1.000000e+00 9.080491e-15
    outer loop
      vertex -3.100000e+01 -1.211091e+01 1.000000e+00
      vertex 3.100000e+01 -1.211091e+01 1.000000e+00
      vertex 2.100000e+01 -1.211091e+01 1.000000e+01
    endloop
  endfacet
  facet normal 1.826859e-15 -1.000000e+00 9.080491e-15
    outer loop
      vertex 2.100000e+01 -1.211091e+01 1.000000e+01
      vertex 3.100000e+01 -1.211091e+01 1.000000e+00
      vertex 2.100000e+01 -1.211091e+01 1.100000e+01
    endloop
  endfacet
  facet normal 1.826859e-15 -1.000000e+00 9.080491e-15
    outer loop
      vertex -3.100000e+01 -1.211091e+01 1.000000e+00
      vertex -2.100000e+01 -1.211091e+01 1.000000e+01
      vertex -2.100000e+01 -1.211091e+01 1.100000e+01
    endloop
  endfacet
  facet normal 1.826859e-15 -1.000000e+00 9.080491e-15
    outer loop
      vertex -2.100000e+01 -1.211091e+01 1.000000e+01
      vertex -3.100000e+01 -1.211091e+01 1.000000e+00
      vertex 2.100000e+01 -1.211091e+01 1.000000e+01
    endloop
  endfacet
  facet normal -1.000000e+00 0.000000e+00 0.000000e+00
    outer loop
      vertex 2.000000e+01 3.445436e+00 3.828427e+01
      vertex 2.000000e+01 -1.211091e+01 1.141421e+01
      vertex 2.000000e+01 -1.776777e+01 1.707107e+01
    endloop
  endfacet
  facet normal -1.000000e+00 0.000000e+00 0.000000e+00
    outer loop
      vertex 2.000000e+01 -1.211091e+01 1.141421e+01
      vertex 2.000000e+01 3.445436e+00 3.828427e+01
      vertex 2.000000e+01 -1.140381e+01 1.070711e+01
    endloop
  endfacet
  facet normal -1.000000e+00 0.000000e+00 0.000000e+00
    outer loop
      vertex 2.000000e+01 -1.140381e+01 1.070711e+01
      vertex 2.000000e+01 3.445436e+00 3.828427e+01
      vertex 2.000000e+01 -1.111091e+01 2.819966e-15
    endloop
  endfacet
  facet normal -1.000000e+00 0.000000e+00 0.000000e+00
    outer loop
      vertex 2.000000e+01 -1.111091e+01 2.819966e-15
      vertex 2.000000e+01 3.445436e+00 3.828427e+01
      vertex 2.000000e+01 1.888909e+01 2.819966e-15
    endloop
  endfacet
  facet normal -1.000000e+00 0.000000e+00 0.000000e+00
    outer loop
      vertex 2.000000e+01 1.888909e+01 2.819966e-15
      vertex 2.000000e+01 3.445436e+00 3.828427e+01
      vertex 2.000000e+01 9.102291e+00 3.262742e+01
    endloop
  endfacet
  facet normal -1.000000e+00 0.000000e+00 0.000000e+00
    outer loop
      vertex 2.000000e+01 1.888909e+01 2.819966e-15
      vertex 2.000000e+01 9.102291e+00 3.262742e+01
      vertex 2.000000e+01 1.888296e+01 2.284675e+01
    endloop
  endfacet
  facet normal -1.475604e-18 9.996260e-01 2.734480e-02
    outer loop
      vertex 2.000000e+01 -1.140381e+01 1.070711e+01
      vertex 2.000000e+01 -1.111091e+01 2.819966e-15
      vertex -2.000000e+01 -1.140381e+01 1.070711e+01
    endloop
  endfacet
  facet normal 3.977915e-14 1.000000e+00 6.156538e-30
    outer loop
      vertex 2.100000e+01 -1.111091e+01 1.100000e+01
      vertex 3.100000e+01 -1.111091e+01 1.000000e+00
      vertex 2.100000e+01 -1.111091e+01 1.000000e+00
    endloop
  endfacet
  facet normal 3.187677e-33 -7.071068e-01 -7.071068e-01
    outer loop
      vertex 2.100000e+01 -1.211091e+01 1.000000e+01
      vertex -2.100000e+01 -1.988909e+01 1.777818e+01
      vertex -2.100000e+01 -1.211091e+01 1.000000e+01
    endloop
  endfacet
  facet normal 3.187677e-33 -7.071068e-01 -7.071068e-01
    outer loop
      vertex -2.100000e+01 -1.988909e+01 1.777818e+01
      vertex 2.100000e+01 -1.211091e+01 1.000000e+01
      vertex 2.100000e+01 -1.988909e+01 1.777818e+01
    endloop
  endfacet
  facet normal -3.947953e-14 -1.000000e+00 0.000000e+00
    outer loop
      vertex 2.100000e+01 1.888909e+01 1.100000e+01
      vertex 2.100000e+01 1.888909e+01 1.000000e+00
      vertex 3.100000e+01 1.888909e+01 1.000000e+00
    endloop
  endfacet
  facet normal 0.000000e+00 0.000000e+00 1.000000e+00
    outer loop
      vertex 2.100000e+01 -1.111091e+01 1.000000e+00
      vertex 3.100000e+01 1.888909e+01 1.000000e+00
      vertex 2.100000e+01 1.888909e+01 1.000000e+00
    endloop
  endfacet
  facet normal 0.000000e+00 0.000000e+00 1.000000e+00
    outer loop
      vertex 3.100000e+01 1.888909e+01 1.000000e+00
      vertex 2.100000e+01 -1.111091e+01 1.000000e+00
      vertex 3.100000e+01 -1.111091e+01 1.000000e+00
    endloop
  endfacet
  facet normal 7.071068e-01 -2.809384e-14 7.071068e-01
    outer loop
      vertex 3.100000e+01 -1.111091e+01 1.000000e+00
      vertex 2.100000e+01 -1.211091e+01 1.100000e+01
      vertex 3.100000e+01 -1.211091e+01 1.000000e+00
    endloop
  endfacet
  facet normal 7.071068e-01 -2.809384e-14 7.071068e-01
    outer loop
      vertex 2.100000e+01 -1.211091e+01 1.100000e+01
      vertex 3.100000e+01 -1.111091e+01 1.000000e+00
      vertex 2.100000e+01 -1.111091e+01 1.100000e+01
    endloop
  endfacet
  facet normal 1.318959e-18 -7.071068e-01 -7.071068e-01
    outer loop
      vertex 2.000000e+01 -1.140381e+01 1.070711e+01
      vertex -2.000000e+01 -1.211091e+01 1.141421e+01
      vertex -2.000000e+01 -1.140381e+01 1.070711e+01
    endloop
  endfacet
  facet normal 1.318959e-18 -7.071068e-01 -7.071068e-01
    outer loop
      vertex -2.000000e+01 -1.211091e+01 1.141421e+01
      vertex 2.000000e+01 -1.140381e+01 1.070711e+01
      vertex -2.000000e+01 -1.776777e+01 1.707107e+01
    endloop
  endfacet
  facet normal 1.318959e-18 -7.071068e-01 -7.071068e-01
    outer loop
      vertex -2.000000e+01 -1.776777e+01 1.707107e+01
      vertex 2.000000e+01 -1.140381e+01 1.070711e+01
      vertex 2.000000e+01 -1.776777e+01 1.707107e+01
    endloop
  endfacet
  facet normal 1.318959e-18 -7.071068e-01 -7.071068e-01
    outer loop
      vertex 2.000000e+01 -1.776777e+01 1.707107e+01
      vertex 2.000000e+01 -1.140381e+01 1.070711e+01
      vertex 2.000000e+01 -1.211091e+01 1.141421e+01
    endloop
  endfacet
  facet normal -5.271621e-33 -7.071068e-01 7.071068e-01
    outer loop
      vertex 2.000000e+01 -1.776777e+01 1.707107e+01
      vertex 2.773827e+00 -1.541664e+01 1.942219e+01
      vertex -2.000000e+01 -1.776777e+01 1.707107e+01
    endloop
  endfacet
  facet normal -5.271621e-33 -7.071068e-01 7.071068e-01
    outer loop
      vertex 2.773827e+00 -1.541664e+01 1.942219e+01
      vertex 2.000000e+01 -1.776777e+01 1.707107e+01
      vertex 5.701027e+00 -1.462770e+01 2.021113e+01
    endloop
  endfacet
  facet normal -5.271621e-33 -7.071068e-01 7.071068e-01
    outer loop
      vertex 5.701027e+00 -1.462770e+01 2.021113e+01
      vertex 2.000000e+01 -1.776777e+01 1.707107e+01
      vertex 8.239712e+00 -1.332992e+01 2.150891e+01
    endloop
  endfacet
  facet normal -5.271621e-33 -7.071068e-01 7.071068e-01
    outer loop
      vertex 8.239712e+00 -1.332992e+01 2.150891e+01
      vertex 2.000000e+01 -1.776777e+01 1.707107e+01
      vertex 1.021687e+01 -1.161176e+01 2.322708e+01
    endloop
  endfacet
  facet normal -5.271621e-33 -7.071068e-01 7.071068e-01
    outer loop
      vertex 1.021687e+01 -1.161176e+01 2.322708e+01
      vertex 2.000000e+01 -1.776777e+01 1.707107e+01
      vertex 2.000000e+01 3.445436e+00 3.828427e+01
    endloop
  endfacet
  facet normal -5.271621e-33 -7.071068e-01 7.071068e-01
    outer loop
      vertex -2.000000e+01 -1.776777e+01 1.707107e+01
      vertex 2.773827e+00 -1.541664e+01 1.942219e+01
      vertex -3.424034e-01 -1.564299e+01 1.919584e+01
    endloop
  endfacet
  facet normal -5.271621e-33 -7.071068e-01 7.071068e-01
    outer loop
      vertex 1.021687e+01 -1.161176e+01 2.322708e+01
      vertex 2.000000e+01 3.445436e+00 3.828427e+01
      vertex 1.149777e+01 -9.590290e+00 2.524854e+01
    endloop
  endfacet
  facet normal -5.271621e-33 -7.071068e-01 7.071068e-01
    outer loop
      vertex 1.149777e+01 -9.590290e+00 2.524854e+01
      vertex 2.000000e+01 3.445436e+00 3.828427e+01
      vertex 1.199511e+01 -7.403282e+00 2.743555e+01
    endloop
  endfacet
  facet normal -5.271621e-33 -7.071068e-01 7.071068e-01
    outer loop
      vertex 1.199511e+01 -7.403282e+00 2.743555e+01
      vertex 2.000000e+01 3.445436e+00 3.828427e+01
      vertex 1.167501e+01 -5.199773e+00 2.963906e+01
    endloop
  endfacet
  facet normal -5.271621e-33 -7.071068e-01 7.071068e-01
    outer loop
      vertex 1.167501e+01 -5.199773e+00 2.963906e+01
      vertex 2.000000e+01 3.445436e+00 3.828427e+01
      vertex 1.055928e+01 -3.129931e+00 3.170890e+01
    endloop
  endfacet
  facet normal -5.271621e-33 -7.071068e-01 7.071068e-01
    outer loop
      vertex 1.055928e+01 -3.129931e+00 3.170890e+01
      vertex 2.000000e+01 3.445436e+00 3.828427e+01
      vertex 8.723942e+00 -1.334811e+00 3.350402e+01
    endloop
  endfacet
  facet normal -5.271621e-33 -7.071068e-01 7.071068e-01
    outer loop
      vertex 8.723942e+00 -1.334811e+00 3.350402e+01
      vertex 2.000000e+01 3.445436e+00 3.828427e+01
      vertex 6.294086e+00 6.325388e-02 3.490209e+01
    endloop
  endfacet
  facet normal -5.271621e-33 -7.071068e-01 7.071068e-01
    outer loop
      vertex 6.294086e+00 6.325388e-02 3.490209e+01
      vertex 2.000000e+01 3.445436e+00 3.828427e+01
      vertex 3.435299e+00 9.689860e-01 3.580782e+01
    endloop
  endfacet
  facet normal -5.271621e-33 -7.071068e-01 7.071068e-01
    outer loop
      vertex 3.435299e+00 9.689860e-01 3.580782e+01
      vertex 2.000000e+01 3.445436e+00 3.828427e+01
      vertex 3.424034e-01 1.320661e+00 3.615950e+01
    endloop
  endfacet
  facet normal -5.271621e-33 -7.071068e-01 7.071068e-01
    outer loop
      vertex -2.000000e+01 -1.776777e+01 1.707107e+01
      vertex -1.055927e+01 -1.119240e+01 2.364643e+01
      vertex -2.000000e+01 3.445436e+00 3.828427e+01
    endloop
  endfacet
  facet normal -5.271621e-33 -7.071068e-01 7.071068e-01
    outer loop
      vertex -1.055927e+01 -1.119240e+01 2.364643e+01
      vertex -2.000000e+01 -1.776777e+01 1.707107e+01
      vertex -8.723942e+00 -1.298752e+01 2.185131e+01
    endloop
  endfacet
  facet normal -5.271621e-33 -7.071068e-01 7.071068e-01
    outer loop
      vertex -8.723942e+00 -1.298752e+01 2.185131e+01
      vertex -2.000000e+01 -1.776777e+01 1.707107e+01
      vertex -6.294088e+00 -1.438558e+01 2.045325e+01
    endloop
  endfacet
  facet normal -5.271621e-33 -7.071068e-01 7.071068e-01
    outer loop
      vertex -6.294088e+00 -1.438558e+01 2.045325e+01
      vertex -2.000000e+01 -1.776777e+01 1.707107e+01
      vertex -3.435301e+00 -1.529132e+01 1.954752e+01
    endloop
  endfacet
  facet normal -5.271621e-33 -7.071068e-01 7.071068e-01
    outer loop
      vertex -3.435301e+00 -1.529132e+01 1.954752e+01
      vertex -2.000000e+01 -1.776777e+01 1.707107e+01
      vertex -3.424034e-01 -1.564299e+01 1.919584e+01
    endloop
  endfacet
  facet normal -5.271621e-33 -7.071068e-01 7.071068e-01
    outer loop
      vertex -2.000000e+01 3.445436e+00 3.828427e+01
      vertex -1.055927e+01 -1.119240e+01 2.364643e+01
      vertex -1.167501e+01 -9.122557e+00 2.571628e+01
    endloop
  endfacet
  facet normal -5.271621e-33 -7.071068e-01 7.071068e-01
    outer loop
      vertex -2.000000e+01 3.445436e+00 3.828427e+01
      vertex -1.167501e+01 -9.122557e+00 2.571628e+01
      vertex -1.199511e+01 -6.919049e+00 2.791979e+01
    endloop
  endfacet
  facet normal -5.271621e-33 -7.071068e-01 7.071068e-01
    outer loop
      vertex -2.000000e+01 3.445436e+00 3.828427e+01
      vertex -1.199511e+01 -6.919049e+00 2.791979e+01
      vertex -1.149777e+01 -4.732041e+00 3.010679e+01
    endloop
  endfacet
  facet normal -5.271621e-33 -7.071068e-01 7.071068e-01
    outer loop
      vertex -2.000000e+01 3.445436e+00 3.828427e+01
      vertex -1.149777e+01 -4.732041e+00 3.010679e+01
      vertex -1.021687e+01 -2.710574e+00 3.212826e+01
    endloop
  endfacet
  facet normal -5.271621e-33 -7.071068e-01 7.071068e-01
    outer loop
      vertex -2.000000e+01 3.445436e+00 3.828427e+01
      vertex -1.021687e+01 -2.710574e+00 3.212826e+01
      vertex -8.239710e+00 -9.924064e-01 3.384643e+01
    endloop
  endfacet
  facet normal -5.271621e-33 -7.071068e-01 7.071068e-01
    outer loop
      vertex -2.000000e+01 3.445436e+00 3.828427e+01
      vertex -8.239710e+00 -9.924064e-01 3.384643e+01
      vertex -5.701027e+00 3.053699e-01 3.514420e+01
    endloop
  endfacet
  facet normal -5.271621e-33 -7.071068e-01 7.071068e-01
    outer loop
      vertex -2.000000e+01 3.445436e+00 3.828427e+01
      vertex -5.701027e+00 3.053699e-01 3.514420e+01
      vertex -2.773827e+00 1.094314e+00 3.593315e+01
    endloop
  endfacet
  facet normal -5.271621e-33 -7.071068e-01 7.071068e-01
    outer loop
      vertex -2.000000e+01 3.445436e+00 3.828427e+01
      vertex -2.773827e+00 1.094314e+00 3.593315e+01
      vertex 3.424034e-01 1.320661e+00 3.615950e+01
    endloop
  endfacet
  facet normal -5.271621e-33 -7.071068e-01 7.071068e-01
    outer loop
      vertex -2.000000e+01 3.445436e+00 3.828427e+01
      vertex 3.424034e-01 1.320661e+00 3.615950e+01
      vertex 2.000000e+01 3.445436e+00 3.828427e+01
    endloop
  endfacet
  facet normal 0.000000e+00 -7.071068e-01 7.071068e-01
    outer loop
      vertex 2.100000e+01 -1.988909e+01 1.777818e+01
      vertex 2.773827e+00 -1.683086e+01 2.083640e+01
      vertex -2.100000e+01 -1.988909e+01 1.777818e+01
    endloop
  endfacet
  facet normal 0.000000e+00 -7.071068e-01 7.071068e-01
    outer loop
      vertex 2.773827e+00 -1.683086e+01 2.083640e+01
      vertex 2.100000e+01 -1.988909e+01 1.777818e+01
      vertex 5.701027e+00 -1.604191e+01 2.162535e+01
    endloop
  endfacet
  facet normal 0.000000e+00 -7.071068e-01 7.071068e-01
    outer loop
      vertex 5.701027e+00 -1.604191e+01 2.162535e+01
      vertex 2.100000e+01 -1.988909e+01 1.777818e+01
      vertex 8.239712e+00 -1.474414e+01 2.292312e+01
    endloop
  endfacet
  facet normal 0.000000e+00 -7.071068e-01 7.071068e-01
    outer loop
      vertex 8.239712e+00 -1.474414e+01 2.292312e+01
      vertex 2.100000e+01 -1.988909e+01 1.777818e+01
      vertex 1.021687e+01 -1.302597e+01 2.464129e+01
    endloop
  endfacet
  facet normal 0.000000e+00 -7.071068e-01 7.071068e-01
    outer loop
      vertex 1.021687e+01 -1.302597e+01 2.464129e+01
      vertex 2.100000e+01 -1.988909e+01 1.777818e+01
      vertex 2.100000e+01 2.738329e+00 4.040559e+01
    endloop
  endfacet
  facet normal 0.000000e+00 -7.071068e-01 7.071068e-01
    outer loop
      vertex -2.100000e+01 -1.988909e+01 1.777818e+01
      vertex 2.773827e+00 -1.683086e+01 2.083640e+01
      vertex -3.424034e-01 -1.705721e+01 2.061006e+01
    endloop
  endfacet
  facet normal 0.000000e+00 -7.071068e-01 7.071068e-01
    outer loop
      vertex 1.021687e+01 -1.302597e+01 2.464129e+01
      vertex 2.100000e+01 2.738329e+00 4.040559e+01
      vertex 1.149777e+01 -1.100450e+01 2.666276e+01
    endloop
  endfacet
  facet normal 0.000000e+00 -7.071068e-01 7.071068e-01
    outer loop
      vertex 1.149777e+01 -1.100450e+01 2.666276e+01
      vertex 2.100000e+01 2.738329e+00 4.040559e+01
      vertex 1.199511e+01 -8.817495e+00 2.884977e+01
    endloop
  endfacet
  facet normal 0.000000e+00 -7.071068e-01 7.071068e-01
    outer loop
      vertex 1.199511e+01 -8.817495e+00 2.884977e+01
      vertex 2.100000e+01 2.738329e+00 4.040559e+01
      vertex 1.167501e+01 -6.613987e+00 3.105327e+01
    endloop
  endfacet
  facet normal 0.000000e+00 -7.071068e-01 7.071068e-01
    outer loop
      vertex 1.167501e+01 -6.613987e+00 3.105327e+01
      vertex 2.100000e+01 2.738329e+00 4.040559e+01
      vertex 1.055928e+01 -4.544145e+00 3.312312e+01
    endloop
  endfacet
  facet normal 0.000000e+00 -7.071068e-01 7.071068e-01
    outer loop
      vertex 1.055928e+01 -4.544145e+00 3.312312e+01
      vertex 2.100000e+01 2.738329e+00 4.040559e+01
      vertex 8.723942e+00 -2.749024e+00 3.491824e+01
    endloop
  endfacet
  facet normal 0.000000e+00 -7.071068e-01 7.071068e-01
    outer loop
      vertex 8.723942e+00 -2.749024e+00 3.491824e+01
      vertex 2.100000e+01 2.738329e+00 4.040559e+01
      vertex 6.294086e+00 -1.350960e+00 3.631630e+01
    endloop
  endfacet
  facet normal 0.000000e+00 -7.071068e-01 7.071068e-01
    outer loop
      vertex 6.294086e+00 -1.350960e+00 3.631630e+01
      vertex 2.100000e+01 2.738329e+00 4.040559e+01
      vertex 3.435299e+00 -4.452281e-01 3.722203e+01
    endloop
  endfacet
  facet normal 0.000000e+00 -7.071068e-01 7.071068e-01
    outer loop
      vertex 3.435299e+00 -4.452281e-01 3.722203e+01
      vertex 2.100000e+01 2.738329e+00 4.040559e+01
      vertex 3.424034e-01 -9.355211e-02 3.757371e+01
    endloop
  endfacet
  facet normal 0.000000e+00 -7.071068e-01 7.071068e-01
    outer loop
      vertex -2.100000e+01 -1.988909e+01 1.777818e+01
      vertex -1.055927e+01 -1.260661e+01 2.506065e+01
      vertex -2.100000e+01 2.738329e+00 4.040559e+01
    endloop
  endfacet
  facet normal 0.000000e+00 -7.071068e-01 7.071068e-01
    outer loop
      vertex -1.055927e+01 -1.260661e+01 2.506065e+01
      vertex -2.100000e+01 -1.988909e+01 1.777818e+01
      vertex -8.723942e+00 -1.440173e+01 2.326553e+01
    endloop
  endfacet
  facet normal 0.000000e+00 -7.071068e-01 7.071068e-01
    outer loop
      vertex -8.723942e+00 -1.440173e+01 2.326553e+01
      vertex -2.100000e+01 -1.988909e+01 1.777818e+01
      vertex -6.294088e+00 -1.579980e+01 2.186746e+01
    endloop
  endfacet
  facet normal 0.000000e+00 -7.071068e-01 7.071068e-01
    outer loop
      vertex -6.294088e+00 -1.579980e+01 2.186746e+01
      vertex -2.100000e+01 -1.988909e+01 1.777818e+01
      vertex -3.435301e+00 -1.670553e+01 2.096173e+01
    endloop
  endfacet
  facet normal 0.000000e+00 -7.071068e-01 7.071068e-01
    outer loop
      vertex -3.435301e+00 -1.670553e+01 2.096173e+01
      vertex -2.100000e+01 -1.988909e+01 1.777818e+01
      vertex -3.424034e-01 -1.705721e+01 2.061006e+01
    endloop
  endfacet
  facet normal 0.000000e+00 -7.071068e-01 7.071068e-01
    outer loop
      vertex -2.100000e+01 2.738329e+00 4.040559e+01
      vertex -1.055927e+01 -1.260661e+01 2.506065e+01
      vertex -1.167501e+01 -1.053677e+01 2.713049e+01
    endloop
  endfacet
  facet normal 0.000000e+00 -7.071068e-01 7.071068e-01
    outer loop
      vertex -2.100000e+01 2.738329e+00 4.040559e+01
      vertex -1.167501e+01 -1.053677e+01 2.713049e+01
      vertex -1.199511e+01 -8.333263e+00 2.933400e+01
    endloop
  endfacet
  facet normal 0.000000e+00 -7.071068e-01 7.071068e-01
    outer loop
      vertex -2.100000e+01 2.738329e+00 4.040559e+01
      vertex -1.199511e+01 -8.333263e+00 2.933400e+01
      vertex -1.149777e+01 -6.146255e+00 3.152101e+01
    endloop
  endfacet
  facet normal 0.000000e+00 -7.071068e-01 7.071068e-01
    outer loop
      vertex -2.100000e+01 2.738329e+00 4.040559e+01
      vertex -1.149777e+01 -6.146255e+00 3.152101e+01
      vertex -1.021687e+01 -4.124787e+00 3.354248e+01
    endloop
  endfacet
  facet normal 0.000000e+00 -7.071068e-01 7.071068e-01
    outer loop
      vertex -2.100000e+01 2.738329e+00 4.040559e+01
      vertex -1.021687e+01 -4.124787e+00 3.354248e+01
      vertex -8.239710e+00 -2.406620e+00 3.526064e+01
    endloop
  endfacet
  facet normal 0.000000e+00 -7.071068e-01 7.071068e-01
    outer loop
      vertex -2.100000e+01 2.738329e+00 4.040559e+01
      vertex -8.239710e+00 -2.406620e+00 3.526064e+01
      vertex -5.701027e+00 -1.108843e+00 3.655842e+01
    endloop
  endfacet
  facet normal 0.000000e+00 -7.071068e-01 7.071068e-01
    outer loop
      vertex -2.100000e+01 2.738329e+00 4.040559e+01
      vertex -5.701027e+00 -1.108843e+00 3.655842e+01
      vertex -2.773827e+00 -3.198991e-01 3.734736e+01
    endloop
  endfacet
  facet normal 0.000000e+00 -7.071068e-01 7.071068e-01
    outer loop
      vertex -2.100000e+01 2.738329e+00 4.040559e+01
      vertex -2.773827e+00 -3.198991e-01 3.734736e+01
      vertex 3.424034e-01 -9.355211e-02 3.757371e+01
    endloop
  endfacet
  facet normal 0.000000e+00 -7.071068e-01 7.071068e-01
    outer loop
      vertex -2.100000e+01 2.738329e+00 4.040559e+01
      vertex 3.424034e-01 -9.355211e-02 3.757371e+01
      vertex 2.100000e+01 2.738329e+00 4.040559e+01
    endloop
  endfacet
  facet normal 9.125840e-01 -2.891284e-01 -2.891284e-01
    outer loop
      vertex -1.149777e+01 -4.732041e+00 3.010679e+01
      vertex -1.021687e+01 -4.124787e+00 3.354248e+01
      vertex -1.149777e+01 -6.146255e+00 3.152101e+01
    endloop
  endfacet
  facet normal 9.125840e-01 -2.891284e-01 -2.891284e-01
    outer loop
      vertex -1.021687e+01 -4.124787e+00 3.354248e+01
      vertex -1.149777e+01 -4.732041e+00 3.010679e+01
      vertex -1.021687e+01 -2.710574e+00 3.212826e+01
    endloop
  endfacet
  facet normal 9.873168e-01 -1.122621e-01 -1.122621e-01
    outer loop
      vertex -1.199511e+01 -6.919049e+00 2.791979e+01
      vertex -1.149777e+01 -6.146255e+00 3.152101e+01
      vertex -1.199511e+01 -8.333263e+00 2.933400e+01
    endloop
  endfacet
  facet normal 9.873168e-01 -1.122621e-01 -1.122621e-01
    outer loop
      vertex -1.149777e+01 -6.146255e+00 3.152101e+01
      vertex -1.199511e+01 -6.919049e+00 2.791979e+01
      vertex -1.149777e+01 -4.732041e+00 3.010679e+01
    endloop
  endfacet
  facet normal 9.947656e-01 7.225464e-02 7.225464e-02
    outer loop
      vertex -1.167501e+01 -9.122557e+00 2.571628e+01
      vertex -1.199511e+01 -8.333263e+00 2.933400e+01
      vertex -1.167501e+01 -1.053677e+01 2.713049e+01
    endloop
  endfacet
  facet normal 9.947656e-01 7.225464e-02 7.225464e-02
    outer loop
      vertex -1.199511e+01 -8.333263e+00 2.933400e+01
      vertex -1.167501e+01 -9.122557e+00 2.571628e+01
      vertex -1.199511e+01 -6.919049e+00 2.791979e+01
    endloop
  endfacet
  facet normal 9.344227e-01 2.518474e-01 2.518474e-01
    outer loop
      vertex -1.055927e+01 -1.119240e+01 2.364643e+01
      vertex -1.167501e+01 -1.053677e+01 2.713049e+01
      vertex -1.055927e+01 -1.260661e+01 2.506065e+01
    endloop
  endfacet
  facet normal 9.344227e-01 2.518474e-01 2.518474e-01
    outer loop
      vertex -1.167501e+01 -1.053677e+01 2.713049e+01
      vertex -1.055927e+01 -1.119240e+01 2.364643e+01
      vertex -1.167501e+01 -9.122557e+00 2.571628e+01
    endloop
  endfacet
  facet normal 8.104005e-01 4.142771e-01 4.142771e-01
    outer loop
      vertex -8.723942e+00 -1.298752e+01 2.185131e+01
      vertex -1.055927e+01 -1.260661e+01 2.506065e+01
      vertex -8.723942e+00 -1.440173e+01 2.326553e+01
    endloop
  endfacet
  facet normal 8.104005e-01 4.142771e-01 4.142771e-01
    outer loop
      vertex -1.055927e+01 -1.260661e+01 2.506065e+01
      vertex -8.723942e+00 -1.298752e+01 2.185131e+01
      vertex -1.055927e+01 -1.119240e+01 2.364643e+01
    endloop
  endfacet
  facet normal 6.311508e-01 5.484746e-01 5.484746e-01
    outer loop
      vertex -6.294088e+00 -1.438558e+01 2.045325e+01
      vertex -8.723942e+00 -1.440173e+01 2.326553e+01
      vertex -6.294088e+00 -1.579980e+01 2.186746e+01
    endloop
  endfacet
  facet normal 6.311508e-01 5.484746e-01 5.484746e-01
    outer loop
      vertex -8.723942e+00 -1.440173e+01 2.326553e+01
      vertex -6.294088e+00 -1.438558e+01 2.045325e+01
      vertex -8.723942e+00 -1.298752e+01 2.185131e+01
    endloop
  endfacet
  facet normal 4.088893e-01 6.452943e-01 6.452943e-01
    outer loop
      vertex -3.435301e+00 -1.670553e+01 2.096173e+01
      vertex -6.294088e+00 -1.438558e+01 2.045325e+01
      vertex -6.294088e+00 -1.579980e+01 2.186746e+01
    endloop
  endfacet
  facet normal 4.088893e-01 6.452943e-01 6.452943e-01
    outer loop
      vertex -6.294088e+00 -1.438558e+01 2.045325e+01
      vertex -3.435301e+00 -1.670553e+01 2.096173e+01
      vertex -3.435301e+00 -1.529132e+01 1.954752e+01
    endloop
  endfacet
  facet normal 1.587626e-01 6.981384e-01 6.981384e-01
    outer loop
      vertex -3.435301e+00 -1.670553e+01 2.096173e+01
      vertex -3.424034e-01 -1.564299e+01 1.919584e+01
      vertex -3.435301e+00 -1.529132e+01 1.954752e+01
    endloop
  endfacet
  facet normal 1.587626e-01 6.981384e-01 6.981384e-01
    outer loop
      vertex -3.424034e-01 -1.564299e+01 1.919584e+01
      vertex -3.435301e+00 -1.670553e+01 2.096173e+01
      vertex -3.424034e-01 -1.705721e+01 2.061006e+01
    endloop
  endfacet
  facet normal -1.021835e-01 7.034055e-01 7.034055e-01
    outer loop
      vertex -3.424034e-01 -1.705721e+01 2.061006e+01
      vertex 2.773827e+00 -1.541664e+01 1.942219e+01
      vertex -3.424034e-01 -1.564299e+01 1.919584e+01
    endloop
  endfacet
  facet normal -1.021835e-01 7.034055e-01 7.034055e-01
    outer loop
      vertex 2.773827e+00 -1.541664e+01 1.942219e+01
      vertex -3.424034e-01 -1.705721e+01 2.061006e+01
      vertex 2.773827e+00 -1.683086e+01 2.083640e+01
    endloop
  endfacet
  facet normal -3.561659e-01 6.607366e-01 6.607366e-01
    outer loop
      vertex 2.773827e+00 -1.683086e+01 2.083640e+01
      vertex 5.701027e+00 -1.462770e+01 2.021113e+01
      vertex 2.773827e+00 -1.541664e+01 1.942219e+01
    endloop
  endfacet
  facet normal -3.561659e-01 6.607366e-01 6.607366e-01
    outer loop
      vertex 5.701027e+00 -1.462770e+01 2.021113e+01
      vertex 2.773827e+00 -1.683086e+01 2.083640e+01
      vertex 5.701027e+00 -1.604191e+01 2.162535e+01
    endloop
  endfacet
  facet normal -5.858763e-01 5.730397e-01 5.730397e-01
    outer loop
      vertex 8.239712e+00 -1.474414e+01 2.292312e+01
      vertex 5.701027e+00 -1.462770e+01 2.021113e+01
      vertex 5.701027e+00 -1.604191e+01 2.162535e+01
    endloop
  endfacet
  facet normal -5.858763e-01 5.730397e-01 5.730397e-01
    outer loop
      vertex 5.701027e+00 -1.462770e+01 2.021113e+01
      vertex 8.239712e+00 -1.474414e+01 2.292312e+01
      vertex 8.239712e+00 -1.332992e+01 2.150891e+01
    endloop
  endfacet
  facet normal -7.756601e-01 4.462910e-01 4.462910e-01
    outer loop
      vertex 1.021687e+01 -1.302597e+01 2.464129e+01
      vertex 8.239712e+00 -1.332992e+01 2.150891e+01
      vertex 8.239712e+00 -1.474414e+01 2.292312e+01
    endloop
  endfacet
  facet normal -7.756601e-01 4.462910e-01 4.462910e-01
    outer loop
      vertex 8.239712e+00 -1.332992e+01 2.150891e+01
      vertex 1.021687e+01 -1.302597e+01 2.464129e+01
      vertex 1.021687e+01 -1.161176e+01 2.322708e+01
    endloop
  endfacet
  facet normal -9.125840e-01 2.891284e-01 2.891284e-01
    outer loop
      vertex 1.149777e+01 -1.100450e+01 2.666276e+01
      vertex 1.021687e+01 -1.161176e+01 2.322708e+01
      vertex 1.021687e+01 -1.302597e+01 2.464129e+01
    endloop
  endfacet
  facet normal -9.125840e-01 2.891284e-01 2.891284e-01
    outer loop
      vertex 1.021687e+01 -1.161176e+01 2.322708e+01
      vertex 1.149777e+01 -1.100450e+01 2.666276e+01
      vertex 1.149777e+01 -9.590290e+00 2.524854e+01
    endloop
  endfacet
  facet normal -9.873168e-01 1.122621e-01 1.122621e-01
    outer loop
      vertex 1.199511e+01 -8.817495e+00 2.884977e+01
      vertex 1.149777e+01 -9.590290e+00 2.524854e+01
      vertex 1.149777e+01 -1.100450e+01 2.666276e+01
    endloop
  endfacet
  facet normal -9.873168e-01 1.122621e-01 1.122621e-01
    outer loop
      vertex 1.149777e+01 -9.590290e+00 2.524854e+01
      vertex 1.199511e+01 -8.817495e+00 2.884977e+01
      vertex 1.199511e+01 -7.403282e+00 2.743555e+01
    endloop
  endfacet
  facet normal -9.947656e-01 -7.225464e-02 -7.225464e-02
    outer loop
      vertex 1.167501e+01 -6.613987e+00 3.105327e+01
      vertex 1.199511e+01 -7.403282e+00 2.743555e+01
      vertex 1.199511e+01 -8.817495e+00 2.884977e+01
    endloop
  endfacet
  facet normal -9.947656e-01 -7.225464e-02 -7.225464e-02
    outer loop
      vertex 1.199511e+01 -7.403282e+00 2.743555e+01
      vertex 1.167501e+01 -6.613987e+00 3.105327e+01
      vertex 1.167501e+01 -5.199773e+00 2.963906e+01
    endloop
  endfacet
  facet normal -9.344227e-01 -2.518474e-01 -2.518474e-01
    outer loop
      vertex 1.055928e+01 -4.544145e+00 3.312312e+01
      vertex 1.167501e+01 -5.199773e+00 2.963906e+01
      vertex 1.167501e+01 -6.613987e+00 3.105327e+01
    endloop
  endfacet
  facet normal -9.344227e-01 -2.518474e-01 -2.518474e-01
    outer loop
      vertex 1.167501e+01 -5.199773e+00 2.963906e+01
      vertex 1.055928e+01 -4.544145e+00 3.312312e+01
      vertex 1.055928e+01 -3.129931e+00 3.170890e+01
    endloop
  endfacet
  facet normal -8.104005e-01 -4.142771e-01 -4.142771e-01
    outer loop
      vertex 8.723942e+00 -2.749024e+00 3.491824e+01
      vertex 1.055928e+01 -3.129931e+00 3.170890e+01
      vertex 1.055928e+01 -4.544145e+00 3.312312e+01
    endloop
  endfacet
  facet normal -8.104005e-01 -4.142771e-01 -4.142771e-01
    outer loop
      vertex 1.055928e+01 -3.129931e+00 3.170890e+01
      vertex 8.723942e+00 -2.749024e+00 3.491824e+01
      vertex 8.723942e+00 -1.334811e+00 3.350402e+01
    endloop
  endfacet
  facet normal -6.311508e-01 -5.484746e-01 -5.484746e-01
    outer loop
      vertex 6.294086e+00 -1.350960e+00 3.631630e+01
      vertex 8.723942e+00 -1.334811e+00 3.350402e+01
      vertex 8.723942e+00 -2.749024e+00 3.491824e+01
    endloop
  endfacet
  facet normal -6.311508e-01 -5.484746e-01 -5.484746e-01
    outer loop
      vertex 8.723942e+00 -1.334811e+00 3.350402e+01
      vertex 6.294086e+00 -1.350960e+00 3.631630e+01
      vertex 6.294086e+00 6.325388e-02 3.490209e+01
    endloop
  endfacet
  facet normal -4.088893e-01 -6.452943e-01 -6.452943e-01
    outer loop
      vertex 6.294086e+00 6.325388e-02 3.490209e+01
      vertex 3.435299e+00 -4.452281e-01 3.722203e+01
      vertex 3.435299e+00 9.689860e-01 3.580782e+01
    endloop
  endfacet
  facet normal -4.088893e-01 -6.452943e-01 -6.452943e-01
    outer loop
      vertex 3.435299e+00 -4.452281e-01 3.722203e+01
      vertex 6.294086e+00 6.325388e-02 3.490209e+01
      vertex 6.294086e+00 -1.350960e+00 3.631630e+01
    endloop
  endfacet
  facet normal -1.587626e-01 -6.981384e-01 -6.981384e-01
    outer loop
      vertex 3.435299e+00 9.689860e-01 3.580782e+01
      vertex 3.424034e-01 -9.355211e-02 3.757371e+01
      vertex 3.424034e-01 1.320661e+00 3.615950e+01
    endloop
  endfacet
  facet normal -1.587626e-01 -6.981384e-01 -6.981384e-01
    outer loop
      vertex 3.424034e-01 -9.355211e-02 3.757371e+01
      vertex 3.435299e+00 9.689860e-01 3.580782e+01
      vertex 3.435299e+00 -4.452281e-01 3.722203e+01
    endloop
  endfacet
  facet normal 1.021835e-01 -7.034055e-01 -7.034055e-01
    outer loop
      vertex 3.424034e-01 1.320661e+00 3.615950e+01
      vertex -2.773827e+00 -3.198991e-01 3.734736e+01
      vertex -2.773827e+00 1.094314e+00 3.593315e+01
    endloop
  endfacet
  facet normal 1.021835e-01 -7.034055e-01 -7.034055e-01
    outer loop
      vertex -2.773827e+00 -3.198991e-01 3.734736e+01
      vertex 3.424034e-01 1.320661e+00 3.615950e+01
      vertex 3.424034e-01 -9.355211e-02 3.757371e+01
    endloop
  endfacet
  facet normal 3.561659e-01 -6.607366e-01 -6.607366e-01
    outer loop
      vertex -2.773827e+00 1.094314e+00 3.593315e+01
      vertex -5.701027e+00 -1.108843e+00 3.655842e+01
      vertex -5.701027e+00 3.053699e-01 3.514420e+01
    endloop
  endfacet
  facet normal 3.561659e-01 -6.607366e-01 -6.607366e-01
    outer loop
      vertex -5.701027e+00 -1.108843e+00 3.655842e+01
      vertex -2.773827e+00 1.094314e+00 3.593315e+01
      vertex -2.773827e+00 -3.198991e-01 3.734736e+01
    endloop
  endfacet
  facet normal 5.858763e-01 -5.730397e-01 -5.730397e-01
    outer loop
      vertex -8.239710e+00 -9.924064e-01 3.384643e+01
      vertex -5.701027e+00 -1.108843e+00 3.655842e+01
      vertex -8.239710e+00 -2.406620e+00 3.526064e+01
    endloop
  endfacet
  facet normal 5.858763e-01 -5.730397e-01 -5.730397e-01
    outer loop
      vertex -5.701027e+00 -1.108843e+00 3.655842e+01
      vertex -8.239710e+00 -9.924064e-01 3.384643e+01
      vertex -5.701027e+00 3.053699e-01 3.514420e+01
    endloop
  endfacet
  facet normal 7.756601e-01 -4.462910e-01 -4.462910e-01
    outer loop
      vertex -1.021687e+01 -2.710574e+00 3.212826e+01
      vertex -8.239710e+00 -2.406620e+00 3.526064e+01
      vertex -1.021687e+01 -4.124787e+00 3.354248e+01
    endloop
  endfacet
  facet normal 7.756601e-01 -4.462910e-01 -4.462910e-01
    outer loop
      vertex -8.239710e+00 -2.406620e+00 3.526064e+01
      vertex -1.021687e+01 -2.710574e+00 3.212826e+01
      vertex -8.239710e+00 -9.924064e-01 3.384643e+01
    endloop
  endfacet
  facet normal -5.275838e-18 7.071068e-01 7.071068e-01
    outer loop
      vertex 2.000000e+01 3.445436e+00 3.828427e+01
      vertex -2.000000e+01 9.102291e+00 3.262742e+01
      vertex -2.000000e+01 3.445436e+00 3.828427e+01
    endloop
  endfacet
  facet normal -5.275838e-18 7.071068e-01 7.071068e-01
    outer loop
      vertex -2.000000e+01 9.102291e+00 3.262742e+01
      vertex 2.000000e+01 3.445436e+00 3.828427e+01
      vertex -2.000000e+01 1.888296e+01 2.284675e+01
    endloop
  endfacet
  facet normal -5.275838e-18 7.071068e-01 7.071068e-01
    outer loop
      vertex -2.000000e+01 1.888296e+01 2.284675e+01
      vertex 2.000000e+01 3.445436e+00 3.828427e+01
      vertex 2.000000e+01 1.888296e+01 2.284675e+01
    endloop
  endfacet
  facet normal -5.275838e-18 7.071068e-01 7.071068e-01
    outer loop
      vertex 2.000000e+01 1.888296e+01 2.284675e+01
      vertex 2.000000e+01 3.445436e+00 3.828427e+01
      vertex 2.000000e+01 9.102291e+00 3.262742e+01
    endloop
  endfacet
  facet normal 6.699761e-05 1.000000e+00 1.149274e-04
    outer loop
      vertex -4.375341e+00 1.888909e+01 2.230000e+01
      vertex 2.000000e+01 1.888909e+01 2.819966e-15
      vertex -2.000000e+01 1.888909e+01 2.819966e-15
    endloop
  endfacet
  facet normal 6.699761e-05 1.000000e+00 1.149274e-04
    outer loop
      vertex 2.000000e+01 1.888909e+01 2.819966e-15
      vertex -4.375341e+00 1.888909e+01 2.230000e+01
      vertex 2.000000e+01 1.888296e+01 2.284675e+01
    endloop
  endfacet
endsolid Default
